<?xml version="1.0" encoding="iso-8859-1"?>
<!-- Generator: Adobe Illustrator 19.0.0, SVG Export Plug-In . SVG Version: 6.00 Build 0)  -->
<svg version="1.1" id="Layer_1" xmlns="http://www.w3.org/2000/svg" xmlns:xlink="http://www.w3.org/1999/xlink" x="0px" y="0px"
	 viewBox="0 0 512.028 512.028" style="enable-background:new 0 0 512.028 512.028;" xml:space="preserve">
<g>
	<g>
		<g>
			<path d="M151.635,128h54.315c2.752-21.845,7.253-41.941,13.419-58.048C189.907,79.68,165.608,100.757,151.635,128z"/>
			<path d="M151.635,234.667c13.995,27.264,38.272,48.341,67.733,58.048c-6.187-16.128-10.667-36.224-13.419-58.048H151.635z"/>
			<path d="M202.685,181.333c0-10.731,0.427-21.461,1.195-32h-60.651c-2.901,10.197-4.544,20.885-4.544,32
				c0,11.115,1.643,21.803,4.544,32h60.651C203.112,202.795,202.685,192.064,202.685,181.333z"/>
			<path d="M245.075,298.112c3.605,0.341,7.253,0.555,10.944,0.555s7.339-0.213,10.944-0.555
				c6.72-12.117,13.653-33.664,17.664-63.445h-57.216C231.421,264.448,238.355,285.995,245.075,298.112z"/>
			<path d="M266.963,64.555C263.357,64.213,259.709,64,256.019,64s-7.339,0.213-10.944,0.555
				c-6.72,12.117-13.653,33.664-17.664,63.445h57.216C280.616,98.219,273.683,76.672,266.963,64.555z"/>
			<path d="M368.808,149.333h-60.651c0.768,10.539,1.195,21.269,1.195,32s-0.427,21.461-1.195,32h60.651
				c2.901-10.197,4.544-20.885,4.544-32S371.709,159.531,368.808,149.333z"/>
			<path d="M373.672,319.061c38.891-33.301,63.68-82.645,63.68-137.728C437.352,81.344,356.008,0,256.019,0
				S74.685,81.344,74.685,181.333c0,55.083,24.789,104.427,63.68,137.728L75.283,497.792c-1.451,4.075-0.256,8.661,3.008,11.541
				c2.005,1.749,4.523,2.667,7.061,2.667c1.621,0,3.264-0.384,4.779-1.131l79.232-39.616l48,38.421
				c2.88,2.304,6.741,2.923,10.219,1.728c3.477-1.237,6.08-4.139,6.869-7.744l14.741-66.347l29.035,68.203
				c1.301,3.093,3.968,5.355,7.211,6.165c3.179,0.875,6.656,0.064,9.28-2.005l48-38.421l79.232,39.616
				c1.472,0.747,3.115,1.131,4.736,1.131c2.539,0,5.056-0.917,7.061-2.667c3.264-2.88,4.437-7.467,3.008-11.541L373.672,319.061z
				 M307.795,332.565l-33.045,7.573c-6.144,0.725-12.373,1.195-18.731,1.195c-88.235,0-160-71.765-160-160s71.765-160,160-160
				s160,71.765,160,160C416.019,251.435,370.664,310.997,307.795,332.565z"/>
			<path d="M292.669,292.715c29.461-9.707,53.739-30.784,67.733-58.048h-54.315C303.336,256.512,298.835,276.608,292.669,292.715z"
				/>
			<path d="M360.403,128c-13.995-27.264-38.272-48.341-67.733-58.048c6.187,16.128,10.667,36.224,13.419,58.048H360.403z"/>
			<path d="M225.299,149.333c-0.768,10.069-1.28,20.608-1.28,32s0.512,21.931,1.28,32h61.44c0.768-10.069,1.28-20.608,1.28-32
				s-0.512-21.931-1.28-32H225.299z"/>
		</g>
	</g>
</g>
<g>
</g>
<g>
</g>
<g>
</g>
<g>
</g>
<g>
</g>
<g>
</g>
<g>
</g>
<g>
</g>
<g>
</g>
<g>
</g>
<g>
</g>
<g>
</g>
<g>
</g>
<g>
</g>
<g>
</g>
</svg>
