<?xml version="1.0" ?>
<svg data-name="Layer 1" id="Layer_1" viewBox="0 33.6 128 60.79"
    xmlns="http://www.w3.org/2000/svg">
    <title/>
    <g>
        <path class="lense-outline" d="M101.32109,41.016h-74.768c-14.29068,0-19.15777,11.23116-19.44174,25.34827-.301,14.967,11.52543,27.93231,26.495,28.03241a26.56944,26.56944,0,0,0,17.60957-6.48279c.19424-.16774.39746-.32253.60113-.47637l-.00486-.00088q.54662-.93647,1.02693-1.91055c1.02229-2.08529,1.75525-4.289,2.8061-6.3662,1.903-3.7617,3.674-6.79943,8.29184-6.79943s6.38879,3.03773,8.29184,6.79943c1.05085,2.07719,1.7838,4.28091,2.8061,6.3662q.478.97489,1.02693,1.91055l-.00486.00088c.20366.15383.40689.30862.60113.47637A26.56944,26.56944,0,0,0,94.26779,94.3967c14.9696-.1001,26.79607-13.06546,26.495-28.03241C120.47886,52.24717,115.61176,41.016,101.32109,41.016Z" style="fill: #dbdbdb"/>
        <path class="lense" d="M100.81079,45.83012c-6.06906-1.06506-12.77832-.315-18.89463-.315H45.958c-6.11631,0-12.82558-.75-18.89463.315-10.9522,1.922-14.94568,12.84744-14.35147,22.90225.69115,11.69442,9.514,21.01812,21.39167,21.38217,7.6.23288,12.50834-3.5311,16.49255-9.762,3.47494-5.43437,5.17837-15.6514,13.341-15.22766,8.16259-.42374,9.866,9.7933,13.341,15.22766,3.98421,6.23091,8.8926,9.9949,16.49255,9.762,11.8777-.364,20.70052-9.68775,21.39167-21.38217C115.75647,58.67756,111.763,47.75215,100.81079,45.83012Z" style="fill: #637f8f"/>
        <path class="nose" d="M76.062,87.43664l-7.025,1.25753a28.94245,28.94245,0,0,1-10.1998,0l-7.025-1.25753q.54658-.93646,1.02692-1.91055c1.02232-2.08523,1.75525-4.289,2.8061-6.36617,1.903-3.76171,3.674-6.79945,8.29185-6.79945s6.38882,3.03773,8.29185,6.79945c1.05085,2.07721,1.78378,4.28095,2.8061,6.36617q.478.97494,1.02692,1.91055" style="fill: #f1f2f2"/>
        <path class="sides" d="M109.81289,34.24773c-6.78336-2.08446-21.82654,1.55-28.8109,1.55H46.87217c-6.98436,0-22.02754-3.63446-28.8109-1.55C9.16343,36.98187,3.44156,44.34649,3.44156,53.47019c0,27.28357,11.51978,32.82367,11.52929,32.83073l-.00216-.0023A27.90821,27.90821,0,0,1,7.11131,66.36424C7.39528,52.24716,12.26242,41.016,26.55307,41.016h74.768c14.29065,0,19.15779,11.23113,19.44176,25.34821a27.90814,27.90814,0,0,1-7.85861,19.9356l-.00252.00274c.00825.00877,11.53087-5.54882,11.53087-32.83239C124.4326,44.34649,118.71074,36.98187,109.81289,34.24773Z" style="fill: #f1f2f2"/>
        <rect class="straps" height="13.56959" rx="1.17996" ry="1.17996" style="fill: #CC2936" width="5.80149" x="122.19851" y="49.90245"/>
        <rect class="straps" height="13.56959" rx="1.17996" ry="1.17996" style="fill: #CC2936" width="5.80149" y="49.90245"/>
        <g style="opacity: 0.4">
            <path class="reflection" d="M18.06136,82.389,53.76,45.51507H49.58334L16.2734,79.92169A22.30328,22.30328,0,0,0,18.06136,82.389Z" style="fill: #FFD21C"/>
            <path class="reflection" d="M23.54543,87.05358,63.76,45.51507H59.58334L21.05013,85.31689A21.437,21.437,0,0,0,23.54543,87.05358Z" style="fill: #FFD21C"/>
        </g>
    </g>
</svg>