<?xml version="1.0" encoding="iso-8859-1"?>
<!-- Generator: Adobe Illustrator 19.0.0, SVG Export Plug-In . SVG Version: 6.00 Build 0)  -->
<svg version="1.1" id="Layer_1" xmlns="http://www.w3.org/2000/svg" xmlns:xlink="http://www.w3.org/1999/xlink" x="0px" y="0px"
	 viewBox="0 0 512 512" style="enable-background:new 0 0 512 512;" xml:space="preserve">
<g>
	<g>
		<path d="M364.129,71.069C346.002,29.295,304.361,0,255.999,0s-90.003,29.295-108.13,71.069H4.543V512h502.914V71.069H364.129z
			 M373.635,124.67l41.054,31.107l-68.881,78.808l35.268,25.64L272.695,360.25v-53.396c9.131-8.794,28.127-28.107,47.26-53.849
			C353.736,207.555,371.764,164.423,373.635,124.67z M239.304,478.609H37.934V104.46h71.811l-61.144,46.33l68.409,78.266
			l-38.647,28.099l160.941,148.533V478.609z M239.305,360.25L239.305,360.25L130.924,260.225l35.267-25.64L97.31,155.777
			l41.065-31.115c3.997,83.46,79.373,161.527,100.93,182.211V360.25z M171.582,117.808c0.001-46.549,37.87-84.417,84.418-84.417
			c46.548,0,84.417,37.868,84.417,84.417c0,65.601-59.246,132.912-84.429,158.556C230.789,250.751,171.582,183.565,171.582,117.808z
			 M417.492,478.609h-78.206v-43.023h78.206V478.609z M450.883,478.609v-76.414H305.895v76.414h-33.2v-72.92l160.939-148.533
			l-38.647-28.099l68.409-78.266l-61.143-46.33h71.812v374.148H450.883z"/>
	</g>
</g>
<g>
</g>
<g>
</g>
<g>
</g>
<g>
</g>
<g>
</g>
<g>
</g>
<g>
</g>
<g>
</g>
<g>
</g>
<g>
</g>
<g>
</g>
<g>
</g>
<g>
</g>
<g>
</g>
<g>
</g>
</svg>
